<mxfile host="app.diagrams.net" agent="Mozilla/5.0 (Windows NT 10.0; Win64; x64) AppleWebKit/537.36 (KHTML, like Gecko) Chrome/135.0.0.0 Safari/537.36" version="26.2.12">
  <diagram id="guuY9mV4yZ4tVXSTZcGp" name="Page-1">
    <mxGraphModel dx="1044" dy="562" grid="1" gridSize="10" guides="1" tooltips="1" connect="1" arrows="1" fold="1" page="1" pageScale="1" pageWidth="850" pageHeight="1100" math="0" shadow="0">
      <root>
        <mxCell id="0" />
        <mxCell id="1" parent="0" />
        <mxCell id="c-jRlzpeT4BgGb8o87W5-2" value="" style="edgeStyle=orthogonalEdgeStyle;rounded=0;orthogonalLoop=1;jettySize=auto;html=1;fontSize=14;" edge="1" parent="1" source="c-jRlzpeT4BgGb8o87W5-3" target="c-jRlzpeT4BgGb8o87W5-6">
          <mxGeometry relative="1" as="geometry" />
        </mxCell>
        <mxCell id="c-jRlzpeT4BgGb8o87W5-3" value="Start" style="strokeWidth=2;html=1;shape=mxgraph.flowchart.start_1;whiteSpace=wrap;fontSize=14;" vertex="1" parent="1">
          <mxGeometry x="385" y="460" width="100" height="60" as="geometry" />
        </mxCell>
        <mxCell id="c-jRlzpeT4BgGb8o87W5-4" value="End" style="strokeWidth=2;html=1;shape=mxgraph.flowchart.start_1;whiteSpace=wrap;fontSize=14;" vertex="1" parent="1">
          <mxGeometry x="385" y="1510" width="100" height="60" as="geometry" />
        </mxCell>
        <mxCell id="c-jRlzpeT4BgGb8o87W5-5" value="" style="edgeStyle=orthogonalEdgeStyle;rounded=0;orthogonalLoop=1;jettySize=auto;html=1;fontSize=14;" edge="1" parent="1" source="c-jRlzpeT4BgGb8o87W5-6" target="c-jRlzpeT4BgGb8o87W5-11">
          <mxGeometry relative="1" as="geometry" />
        </mxCell>
        <mxCell id="c-jRlzpeT4BgGb8o87W5-6" value="int i = 1" style="whiteSpace=wrap;html=1;strokeWidth=2;fontSize=14;" vertex="1" parent="1">
          <mxGeometry x="375" y="560" width="120" height="60" as="geometry" />
        </mxCell>
        <mxCell id="c-jRlzpeT4BgGb8o87W5-7" value="" style="edgeStyle=orthogonalEdgeStyle;rounded=0;orthogonalLoop=1;jettySize=auto;html=1;fontSize=14;" edge="1" parent="1" source="c-jRlzpeT4BgGb8o87W5-11" target="c-jRlzpeT4BgGb8o87W5-13">
          <mxGeometry relative="1" as="geometry" />
        </mxCell>
        <mxCell id="c-jRlzpeT4BgGb8o87W5-8" value="True" style="edgeLabel;html=1;align=center;verticalAlign=middle;resizable=0;points=[];fontSize=14;" vertex="1" connectable="0" parent="c-jRlzpeT4BgGb8o87W5-7">
          <mxGeometry x="-0.29" relative="1" as="geometry">
            <mxPoint as="offset" />
          </mxGeometry>
        </mxCell>
        <mxCell id="c-jRlzpeT4BgGb8o87W5-9" value="" style="edgeStyle=orthogonalEdgeStyle;rounded=0;orthogonalLoop=1;jettySize=auto;html=1;fontSize=14;" edge="1" parent="1" source="c-jRlzpeT4BgGb8o87W5-11" target="c-jRlzpeT4BgGb8o87W5-26">
          <mxGeometry relative="1" as="geometry">
            <Array as="points">
              <mxPoint x="640" y="700" />
              <mxPoint x="640" y="1430" />
            </Array>
          </mxGeometry>
        </mxCell>
        <mxCell id="c-jRlzpeT4BgGb8o87W5-10" value="False" style="edgeLabel;html=1;align=center;verticalAlign=middle;resizable=0;points=[];fontSize=14;" vertex="1" connectable="0" parent="c-jRlzpeT4BgGb8o87W5-9">
          <mxGeometry x="-0.8694" y="-1" relative="1" as="geometry">
            <mxPoint as="offset" />
          </mxGeometry>
        </mxCell>
        <mxCell id="c-jRlzpeT4BgGb8o87W5-11" value="i &amp;lt;= 5" style="rhombus;whiteSpace=wrap;html=1;strokeWidth=2;fontSize=14;" vertex="1" parent="1">
          <mxGeometry x="395" y="660" width="80" height="80" as="geometry" />
        </mxCell>
        <mxCell id="c-jRlzpeT4BgGb8o87W5-12" value="" style="edgeStyle=orthogonalEdgeStyle;rounded=0;orthogonalLoop=1;jettySize=auto;html=1;fontSize=14;" edge="1" parent="1" source="c-jRlzpeT4BgGb8o87W5-13" target="c-jRlzpeT4BgGb8o87W5-18">
          <mxGeometry relative="1" as="geometry" />
        </mxCell>
        <mxCell id="c-jRlzpeT4BgGb8o87W5-13" value="int j = 1" style="whiteSpace=wrap;html=1;strokeWidth=2;fontSize=14;" vertex="1" parent="1">
          <mxGeometry x="375" y="780" width="120" height="60" as="geometry" />
        </mxCell>
        <mxCell id="c-jRlzpeT4BgGb8o87W5-14" value="" style="edgeStyle=orthogonalEdgeStyle;rounded=0;orthogonalLoop=1;jettySize=auto;html=1;fontSize=14;" edge="1" parent="1" source="c-jRlzpeT4BgGb8o87W5-18" target="c-jRlzpeT4BgGb8o87W5-20">
          <mxGeometry relative="1" as="geometry" />
        </mxCell>
        <mxCell id="c-jRlzpeT4BgGb8o87W5-15" value="True" style="edgeLabel;html=1;align=center;verticalAlign=middle;resizable=0;points=[];fontSize=14;" vertex="1" connectable="0" parent="c-jRlzpeT4BgGb8o87W5-14">
          <mxGeometry x="-0.152" y="-2" relative="1" as="geometry">
            <mxPoint as="offset" />
          </mxGeometry>
        </mxCell>
        <mxCell id="c-jRlzpeT4BgGb8o87W5-16" value="" style="edgeStyle=orthogonalEdgeStyle;rounded=0;orthogonalLoop=1;jettySize=auto;html=1;fontSize=14;" edge="1" parent="1" source="c-jRlzpeT4BgGb8o87W5-18" target="c-jRlzpeT4BgGb8o87W5-24">
          <mxGeometry relative="1" as="geometry">
            <Array as="points">
              <mxPoint x="570" y="920" />
              <mxPoint x="570" y="1280" />
            </Array>
          </mxGeometry>
        </mxCell>
        <mxCell id="c-jRlzpeT4BgGb8o87W5-17" value="False" style="edgeLabel;html=1;align=center;verticalAlign=middle;resizable=0;points=[];fontSize=14;" vertex="1" connectable="0" parent="c-jRlzpeT4BgGb8o87W5-16">
          <mxGeometry x="-0.8332" y="2" relative="1" as="geometry">
            <mxPoint as="offset" />
          </mxGeometry>
        </mxCell>
        <mxCell id="c-jRlzpeT4BgGb8o87W5-18" value="j &amp;lt;= i" style="rhombus;whiteSpace=wrap;html=1;strokeWidth=2;fontSize=14;" vertex="1" parent="1">
          <mxGeometry x="395" y="880" width="80" height="80" as="geometry" />
        </mxCell>
        <mxCell id="c-jRlzpeT4BgGb8o87W5-19" value="" style="edgeStyle=orthogonalEdgeStyle;rounded=0;orthogonalLoop=1;jettySize=auto;html=1;fontSize=14;" edge="1" parent="1" source="c-jRlzpeT4BgGb8o87W5-20" target="c-jRlzpeT4BgGb8o87W5-22">
          <mxGeometry relative="1" as="geometry" />
        </mxCell>
        <mxCell id="c-jRlzpeT4BgGb8o87W5-20" value="Print j" style="shape=parallelogram;perimeter=parallelogramPerimeter;whiteSpace=wrap;html=1;fixedSize=1;strokeWidth=2;fontSize=14;" vertex="1" parent="1">
          <mxGeometry x="375" y="1010" width="120" height="60" as="geometry" />
        </mxCell>
        <mxCell id="c-jRlzpeT4BgGb8o87W5-21" value="" style="edgeStyle=orthogonalEdgeStyle;rounded=0;orthogonalLoop=1;jettySize=auto;html=1;fontSize=14;entryX=0;entryY=0.5;entryDx=0;entryDy=0;" edge="1" parent="1" target="c-jRlzpeT4BgGb8o87W5-18">
          <mxGeometry relative="1" as="geometry">
            <mxPoint x="415" y="1140" as="sourcePoint" />
            <mxPoint x="390" y="920" as="targetPoint" />
            <Array as="points">
              <mxPoint x="290" y="1140" />
              <mxPoint x="290" y="920" />
            </Array>
          </mxGeometry>
        </mxCell>
        <mxCell id="c-jRlzpeT4BgGb8o87W5-22" value="j++" style="whiteSpace=wrap;html=1;strokeWidth=2;fontSize=14;" vertex="1" parent="1">
          <mxGeometry x="375" y="1110" width="120" height="60" as="geometry" />
        </mxCell>
        <mxCell id="c-jRlzpeT4BgGb8o87W5-23" value="" style="edgeStyle=orthogonalEdgeStyle;rounded=0;orthogonalLoop=1;jettySize=auto;html=1;fontSize=14;" edge="1" parent="1" target="c-jRlzpeT4BgGb8o87W5-11">
          <mxGeometry relative="1" as="geometry">
            <mxPoint x="375" y="1270" as="sourcePoint" />
            <mxPoint x="390" y="700" as="targetPoint" />
            <Array as="points">
              <mxPoint x="375" y="1271" />
              <mxPoint x="180" y="1271" />
              <mxPoint x="180" y="700" />
            </Array>
          </mxGeometry>
        </mxCell>
        <mxCell id="c-jRlzpeT4BgGb8o87W5-24" value="i++" style="whiteSpace=wrap;html=1;strokeWidth=2;fontSize=14;" vertex="1" parent="1">
          <mxGeometry x="375" y="1250" width="120" height="60" as="geometry" />
        </mxCell>
        <mxCell id="c-jRlzpeT4BgGb8o87W5-25" value="" style="edgeStyle=orthogonalEdgeStyle;rounded=0;orthogonalLoop=1;jettySize=auto;html=1;fontSize=14;" edge="1" parent="1" source="c-jRlzpeT4BgGb8o87W5-26" target="c-jRlzpeT4BgGb8o87W5-4">
          <mxGeometry relative="1" as="geometry" />
        </mxCell>
        <mxCell id="c-jRlzpeT4BgGb8o87W5-26" value="" style="ellipse;whiteSpace=wrap;html=1;strokeWidth=2;fontSize=14;" vertex="1" parent="1">
          <mxGeometry x="395" y="1390" width="80" height="80" as="geometry" />
        </mxCell>
        <mxCell id="c-jRlzpeT4BgGb8o87W5-27" value="&lt;div style=&quot;color: #cccccc;background-color: #1f1f1f;font-family: Consolas, &#39;Courier New&#39;, monospace;font-weight: normal;font-size: 14px;line-height: 19px;white-space: pre;&quot;&gt;&lt;div&gt;&lt;span style=&quot;color: #6a9955;&quot;&gt;// Print the following pattern:&lt;/span&gt;&lt;/div&gt;&lt;div&gt;&lt;span style=&quot;color: #6a9955;&quot;&gt;// 1 &lt;/span&gt;&lt;/div&gt;&lt;div&gt;&lt;span style=&quot;color: #6a9955;&quot;&gt;// 1 2 &lt;/span&gt;&lt;/div&gt;&lt;div&gt;&lt;span style=&quot;color: #6a9955;&quot;&gt;// 1 2 3 &lt;/span&gt;&lt;/div&gt;&lt;div&gt;&lt;span style=&quot;color: #6a9955;&quot;&gt;// 1 2 3 4 &lt;/span&gt;&lt;/div&gt;&lt;div&gt;&lt;span style=&quot;color: #6a9955;&quot;&gt;// 1 2 3 4 5&lt;/span&gt;&lt;/div&gt;&lt;br&gt;&lt;div&gt;&lt;span style=&quot;color: #6a9955;&quot;&gt;// Step 1: Start&lt;/span&gt;&lt;/div&gt;&lt;div&gt;&lt;span style=&quot;color: #6a9955;&quot;&gt;// Step 2: Initialize a variable i with 1&lt;/span&gt;&lt;/div&gt;&lt;div&gt;&lt;span style=&quot;color: #6a9955;&quot;&gt;// Step 3: Repeat steps 4-10 while i is less than or equal to 5&lt;/span&gt;&lt;/div&gt;&lt;div&gt;&lt;span style=&quot;color: #6a9955;&quot;&gt;// Step 4: Initialize a variable j with 1&lt;/span&gt;&lt;/div&gt;&lt;div&gt;&lt;span style=&quot;color: #6a9955;&quot;&gt;// Step 5: Repeat steps 6-8 while j is less than or equal to i&lt;/span&gt;&lt;/div&gt;&lt;div&gt;&lt;span style=&quot;color: #6a9955;&quot;&gt;// Step 6: Print j&lt;/span&gt;&lt;/div&gt;&lt;div&gt;&lt;span style=&quot;color: #6a9955;&quot;&gt;// Step 7: Increment j by 1&lt;/span&gt;&lt;/div&gt;&lt;div&gt;&lt;span style=&quot;color: #6a9955;&quot;&gt;// Step 8: Go to step 5&lt;/span&gt;&lt;/div&gt;&lt;div&gt;&lt;span style=&quot;color: #6a9955;&quot;&gt;// Step 9: Increment i by 1&lt;/span&gt;&lt;/div&gt;&lt;div&gt;&lt;span style=&quot;color: #6a9955;&quot;&gt;// Step 10: Go to step 3&lt;/span&gt;&lt;/div&gt;&lt;div&gt;&lt;span style=&quot;color: #6a9955;&quot;&gt;// Step 11: End&lt;/span&gt;&lt;/div&gt;&lt;/div&gt;" style="text;whiteSpace=wrap;html=1;" vertex="1" parent="1">
          <mxGeometry x="40" y="30" width="520" height="370" as="geometry" />
        </mxCell>
      </root>
    </mxGraphModel>
  </diagram>
</mxfile>
